<svg width="403" height="359" viewBox="0 0 403 359" fill="none" xmlns="http://www.w3.org/2000/svg">
<path d="M64 45C99.3462 45 128 73.6538 128 109V251C128 254.873 127.655 258.665 126.996 262.349C126.647 233.378 103.054 210 74 210H65C35.7289 210 12 233.729 12 263C12 285.334 25.8143 304.441 45.3643 312.243C19.108 304.264 0 279.864 0 251V109C3.7372e-06 73.6538 28.6538 45 64 45Z" fill="#FFC770"/>
<rect x="138" width="127" height="359" rx="63.5" fill="#FFC770"/>
<path d="M339 71C374.346 71 403 99.6538 403 135V246C403 281.346 374.346 310 339 310C303.654 310 275 281.346 275 246V135C275 133.877 275.029 132.762 275.086 131.653C276.723 161.943 301.802 186 332.5 186C364.256 186 390 160.256 390 128.5C390 97.8017 365.943 72.723 335.653 71.0859C336.762 71.0288 337.877 71 339 71Z" fill="#FFC770"/>
</svg>
